<?xml version="1.0" standalone="no"?>
<!DOCTYPE svg PUBLIC "-//W3C//DTD SVG 20010904//EN"
 "http://www.w3.org/TR/2001/REC-SVG-20010904/DTD/svg10.dtd">
<svg version="1.0" xmlns="http://www.w3.org/2000/svg"
 width="2048.000000pt" height="1536.000000pt" viewBox="0 0 2048.000000 1536.000000"
 preserveAspectRatio="xMidYMid meet">

<g transform="translate(0.000000,1536.000000) scale(0.100000,-0.100000)"
fill="#000000" stroke="none">
<path d="M10005 10039 c-77 -5 -160 -13 -185 -17 l-45 -7 118 -75 c65 -41 159
-102 210 -134 51 -33 256 -162 457 -289 201 -126 455 -287 565 -357 133 -85
238 -143 313 -175 198 -83 419 -205 577 -319 64 -46 241 -187 290 -232 68 -62
49 -70 187 72 67 70 196 202 285 293 l163 166 -66 63 c-243 233 -633 493
-1000 664 -560 261 -1248 389 -1869 347z"/>
<path d="M8630 9691 c-424 -197 -786 -450 -1118 -781 -486 -484 -836 -1094
-1007 -1755 -134 -520 -156 -1083 -64 -1625 175 -1030 795 -1968 1684 -2552
1153 -756 2626 -843 3862 -228 960 478 1681 1334 1983 2357 128 433 171 830
151 1375 -11 285 -25 504 -36 556 l-5 22 -678 0 c-372 1 -822 3 -999 6 l-323
6 0 -416 0 -416 612 0 611 0 -7 -149 c-14 -311 -62 -582 -153 -851 -297 -885
-985 -1583 -1873 -1900 -211 -76 -486 -136 -729 -160 -151 -15 -466 -12 -621
5 -1029 116 -1926 738 -2385 1655 -162 323 -263 659 -306 1025 -20 159 -17
538 5 700 75 563 279 1052 621 1490 432 552 1069 952 1750 1098 l60 13 -365
243 c-201 134 -395 267 -432 297 -37 30 -73 54 -80 53 -7 0 -78 -31 -158 -68z"/>
<path d="M9085 7070 c-15 -68 -78 -111 -182 -125 l-53 -7 0 -59 0 -59 105 0
105 0 0 -300 0 -300 85 0 85 0 0 440 0 440 -69 0 c-69 0 -69 0 -76 -30z"/>
<path d="M9702 7086 c-116 -29 -187 -112 -205 -239 -20 -142 29 -256 133 -310
50 -26 62 -28 141 -25 77 3 90 6 124 32 l38 29 -6 -53 c-8 -66 -43 -137 -80
-164 -55 -40 -135 -20 -158 42 -8 20 -15 22 -95 22 l-86 0 6 -32 c25 -123 167
-213 305 -193 139 21 225 105 265 262 18 70 22 290 6 373 -22 115 -84 205
-165 241 -56 25 -158 32 -223 15z m159 -152 c38 -19 62 -73 62 -139 0 -93 -48
-145 -135 -145 -24 0 -54 7 -67 16 -72 51 -66 234 9 271 34 17 95 16 131 -3z"/>
<path d="M10409 7087 c-70 -20 -111 -48 -147 -101 -56 -84 -67 -138 -67 -341
0 -203 11 -256 67 -341 49 -73 124 -108 232 -108 64 0 91 5 128 23 130 62 188
223 174 481 -6 123 -20 190 -54 256 -24 47 -81 100 -127 120 -49 20 -153 26
-206 11z m126 -141 c18 -8 41 -28 49 -44 48 -92 48 -422 0 -514 -18 -35 -75
-62 -114 -53 -29 6 -59 34 -80 73 -17 34 -28 221 -20 337 9 122 30 177 73 199
40 19 49 20 92 2z"/>
<path d="M10955 7048 c-12 -75 -55 -441 -52 -444 2 -2 38 -7 80 -10 56 -5 77
-4 77 5 0 22 64 51 114 51 65 0 111 -43 122 -115 8 -59 -8 -130 -38 -163 -26
-26 -82 -44 -117 -35 -36 8 -79 50 -86 84 l-7 29 -89 0 c-100 0 -99 1 -73 -77
24 -71 59 -109 131 -145 55 -27 76 -32 141 -32 141 0 235 53 289 162 25 50 28
68 28 152 0 79 -4 102 -22 136 -28 53 -71 96 -120 120 -51 25 -193 27 -240 2
-39 -19 -38 -24 -19 92 l12 75 182 3 182 2 0 70 0 70 -245 0 -244 0 -6 -32z"/>
</g>
</svg>
