<?xml version="1.0" standalone="no"?>
<!DOCTYPE svg PUBLIC "-//W3C//DTD SVG 20010904//EN"
 "http://www.w3.org/TR/2001/REC-SVG-20010904/DTD/svg10.dtd">
<svg version="1.0" xmlns="http://www.w3.org/2000/svg"
 width="612.000000pt" height="408.000000pt" viewBox="0 0 612.000000 408.000000"
 preserveAspectRatio="xMidYMid meet">

<g transform="translate(0.000000,408.000000) scale(0.100000,-0.100000)"
fill="#000000" stroke="none">
<path d="M860 4019 c0 -16 4 -28 9 -25 8 5 3 56 -5 56 -2 0 -4 -14 -4 -31z"/>
<path d="M852 3853 c-7 -71 -19 -184 -28 -253 -10 -75 -16 -183 -15 -272 3
-177 -3 -215 -33 -221 -11 -2 10 -2 48 1 56 4 68 3 61 -8 -5 -7 3 -5 16 5 23
18 24 21 21 143 -1 69 0 133 4 141 4 9 7 19 6 23 -9 42 -60 523 -58 542 2 14
0 26 -3 26 -4 0 -12 -57 -19 -127z"/>
<path d="M3060 3739 c0 -5 5 -7 10 -4 6 3 10 8 10 11 0 2 -4 4 -10 4 -5 0 -10
-5 -10 -11z"/>
<path d="M3060 3690 c0 -5 5 -10 11 -10 5 0 7 5 4 10 -3 6 -8 10 -11 10 -2 0
-4 -4 -4 -10z"/>
<path d="M3041 3462 c-13 -114 -25 -274 -28 -357 -2 -82 -6 -155 -8 -161 -2
-7 4 -10 17 -6 14 3 19 1 14 -6 -3 -6 -2 -14 4 -17 6 -4 9 -1 8 7 -2 7 7 14
20 16 17 3 22 -2 23 -20 l0 -23 9 22 c16 40 12 332 -9 541 -10 112 -21 206
-23 208 -3 2 -15 -89 -27 -204z"/>
<path d="M5501 3656 c-8 -10 -9 -16 -1 -21 6 -3 8 -11 5 -16 -9 -13 4 -11 19
4 11 11 11 17 1 30 -11 15 -14 15 -24 3z"/>
<path d="M5765 3616 c11 -9 26 -20 33 -26 8 -7 12 -7 12 0 0 5 12 10 27 10 44
0 13 18 -42 25 -46 5 -48 5 -30 -9z"/>
<path d="M5261 3594 c9 -10 19 -27 22 -36 4 -10 13 -18 21 -18 8 0 17 -8 19
-17 4 -17 5 -17 6 0 1 11 10 17 29 18 l27 1 -30 13 c-16 8 -26 14 -20 15 15 0
-9 20 -31 24 -10 3 -28 8 -39 12 -19 7 -19 6 -4 -12z"/>
<path d="M5118 3535 c-8 -8 2 -45 13 -45 5 0 9 5 9 10 0 6 12 10 27 10 17 0
23 4 18 9 -13 13 -59 24 -67 16z"/>
<path d="M310 3474 c0 -27 -9 -116 -21 -199 -11 -82 -23 -232 -26 -332 -5
-167 -7 -183 -24 -188 -23 -8 -23 -15 -4 -63 16 -38 20 -188 5 -197 -18 -11 3
-45 27 -45 18 0 24 -5 21 -17 -3 -14 -13 -18 -41 -17 -41 1 -44 -6 -23 -57 16
-40 10 -219 -7 -219 -5 0 -1 -8 10 -17 11 -10 22 -25 26 -33 4 -12 6 -11 6 3
1 22 18 22 24 0 4 -17 5 -17 6 0 1 21 21 23 21 2 0 -8 4 -15 10 -15 5 0 7 7 4
15 -4 8 -1 15 6 15 6 0 18 7 26 15 9 8 11 15 5 15 -19 0 -14 186 5 215 20 31
12 55 -20 55 -19 0 -23 4 -19 20 3 11 9 17 14 14 5 -3 9 45 9 108 1 83 4 118
15 132 23 30 18 53 -10 60 -14 4 -30 4 -35 1 -6 -4 -10 0 -10 8 0 8 -7 14 -16
13 -9 0 -19 5 -21 12 -4 10 5 12 36 8 l41 -5 2 117 c2 137 2 124 -16 362 -7
102 -14 201 -15 219 -2 54 -11 50 -11 -5z"/>
<path d="M5004 3505 c-9 -23 -1 -32 24 -26 l23 6 -21 18 c-18 15 -21 15 -26 2z"/>
<path d="M5537 3484 c-8 -8 3 -34 14 -34 5 0 9 9 9 20 0 19 -11 26 -23 14z"/>
<path d="M6036 3464 c-16 -11 -17 -17 -8 -26 15 -15 36 2 30 25 -3 14 -5 14
-22 1z"/>
<path d="M5170 3457 c-20 -8 -22 -11 -7 -14 9 -3 17 -12 18 -21 0 -11 2 -12 6
-4 2 6 9 10 14 6 5 -3 9 4 9 15 0 26 -10 31 -40 18z"/>
<path d="M5948 3387 c-14 -10 -15 -14 -3 -24 16 -15 38 6 26 25 -6 9 -11 9
-23 -1z"/>
<path d="M5136 3382 c-2 -4 2 -16 10 -27 8 -10 14 -13 14 -6 0 6 6 11 13 10 6
-1 19 -1 27 0 12 1 11 4 -3 12 -23 14 -56 19 -61 11z"/>
<path d="M5433 3354 c15 -8 27 -20 27 -27 0 -9 2 -9 8 -1 4 7 18 14 32 16 l25
4 -28 12 c-16 7 -43 12 -60 12 l-32 -1 28 -15z"/>
<path d="M5760 3350 c-21 -6 -23 -8 -7 -15 9 -4 17 -15 17 -24 0 -10 3 -12 8
-5 4 7 18 14 32 16 23 4 24 5 5 13 -11 5 -22 11 -25 15 -3 4 -16 3 -30 0z"/>
<path d="M5598 3323 c12 -8 22 -23 23 -32 0 -10 2 -11 6 -3 2 6 17 12 31 12
l27 0 -23 18 c-13 10 -37 19 -55 20 -32 1 -32 1 -9 -15z"/>
<path d="M2141 3314 c0 -11 3 -14 6 -6 3 7 2 16 -1 19 -3 4 -6 -2 -5 -13z"/>
<path d="M5387 3312 c12 -11 20 -22 17 -25 -3 -3 -1 -8 5 -12 6 -3 11 -2 11 4
0 5 10 13 22 17 26 8 11 18 -42 28 l-35 7 22 -19z"/>
<path d="M4330 3301 c0 -12 25 -21 58 -21 16 0 22 4 17 9 -14 14 -75 23 -75
12z"/>
<path d="M5470 3291 c0 -5 9 -13 20 -16 11 -4 18 -11 15 -16 -4 -5 8 -6 27 -2
43 8 45 11 17 21 -46 17 -79 22 -79 13z"/>
<path d="M2125 3093 c-22 -208 -30 -429 -16 -438 6 -3 11 -1 11 5 0 6 5 8 10
5 6 -4 15 7 21 24 6 17 15 31 20 31 5 0 9 18 9 39 0 39 -1 39 -32 36 -24 -3
-29 -2 -18 5 8 5 23 10 33 10 9 0 17 6 17 14 0 34 -31 430 -34 433 -1 2 -11
-72 -21 -164z m45 -331 c0 -5 -7 -9 -15 -9 -8 0 -12 4 -9 9 3 4 9 8 15 8 5 0
9 -4 9 -8z m-20 -40 c0 -5 -7 -9 -15 -9 -8 0 -15 4 -15 9 0 4 7 8 15 8 8 0 15
-4 15 -8z"/>
<path d="M5370 3249 c-21 -5 -23 -7 -7 -14 9 -4 17 -15 17 -24 0 -10 3 -12 8
-4 4 6 19 13 35 15 l27 3 -28 16 c-16 9 -37 12 -52 8z"/>
<path d="M5813 3243 c9 -11 14 -23 10 -26 -3 -4 -1 -7 5 -7 7 0 12 5 12 10 0
6 10 10 22 10 33 0 8 20 -33 27 -33 5 -33 4 -16 -14z"/>
<path d="M5199 3216 c8 -9 22 -16 32 -16 11 0 19 -7 19 -17 0 -11 3 -14 8 -7
4 6 18 15 31 19 21 6 22 9 8 16 -8 5 -37 12 -63 15 -42 5 -46 4 -35 -10z"/>
<path d="M5964 3194 c-10 -9 -13 -13 -6 -9 7 4 12 0 12 -9 0 -10 6 -13 15 -10
16 7 20 30 6 38 -4 3 -17 -2 -27 -10z"/>
<path d="M4146 3193 c-3 -4 -6 -18 -6 -32 0 -15 3 -21 8 -15 4 7 15 13 25 15
17 4 17 5 -2 21 -10 9 -22 14 -25 11z"/>
<path d="M5448 3189 c-22 -12 -24 -31 -3 -23 9 4 15 0 15 -7 0 -9 5 -7 11 4
14 24 0 39 -23 26z"/>
<path d="M5131 3137 c-18 -127 -41 -411 -43 -535 l-3 -162 48 0 47 0 0 142 c0
142 -41 609 -49 555z"/>
<path d="M4510 3112 c0 -15 5 -18 25 -14 23 4 36 22 16 22 -5 0 -16 3 -25 6
-11 4 -16 0 -16 -14z"/>
<path d="M821 3084 c0 -11 3 -14 6 -6 3 7 2 16 -1 19 -3 4 -6 -2 -5 -13z"/>
<path d="M5350 3091 c0 -6 5 -13 10 -16 6 -4 8 -11 5 -16 -10 -15 5 -10 22 7
14 13 14 17 2 25 -18 12 -39 11 -39 0z"/>
<path d="M4927 3078 c-9 -5 -17 -16 -17 -24 0 -8 4 -13 9 -10 5 4 12 0 15 -6
5 -11 7 -11 12 0 3 6 10 10 15 6 14 -8 11 16 -4 31 -9 9 -19 10 -30 3z"/>
<path d="M4743 3056 c9 -7 17 -19 17 -27 0 -9 3 -10 8 -3 4 6 18 15 32 20 l25
8 -30 7 c-16 4 -39 7 -50 7 -19 1 -19 1 -2 -12z"/>
<path d="M760 3043 c0 -10 10 -36 21 -58 20 -36 21 -51 17 -172 -3 -73 -1
-133 4 -133 4 0 8 -7 8 -15 0 -8 5 -15 10 -15 6 0 10 7 10 16 0 13 9 15 48 12
l47 -3 5 145 c4 115 9 152 24 178 26 48 12 56 -99 60 -87 4 -95 2 -95 -15z"/>
<path d="M4555 3020 c-3 -5 1 -10 9 -10 8 0 20 -8 25 -17 6 -10 11 -13 11 -6
0 7 7 10 16 6 14 -5 15 -3 5 15 -12 23 -55 30 -66 12z"/>
<path d="M4415 2999 c-16 -4 -25 -7 -18 -8 6 0 19 -8 28 -18 11 -10 19 -13 23
-6 4 6 18 13 31 14 23 4 23 4 -5 14 -16 6 -42 8 -59 4z"/>
<path d="M1565 2980 c-3 -5 -1 -10 4 -10 6 0 11 5 11 10 0 6 -2 10 -4 10 -3 0
-8 -4 -11 -10z"/>
<path d="M1565 2951 c-3 -5 -1 -12 5 -16 5 -3 10 1 10 9 0 18 -6 21 -15 7z"/>
<path d="M1557 2894 c-8 -8 1 -24 14 -24 5 0 9 7 9 15 0 15 -12 20 -23 9z"/>
<path d="M2970 2886 c0 -2 7 -23 15 -47 11 -29 16 -76 15 -139 -2 -155 -8
-140 55 -140 l55 0 0 114 c0 91 4 124 19 159 17 40 18 46 4 51 -16 7 -163 8
-163 2z"/>
<path d="M3811 2820 c-1 -36 -6 -108 -12 -160 -8 -74 -13 -264 -9 -377 0 -11
54 -12 66 0 13 13 2 260 -21 427 -18 143 -23 163 -24 110z"/>
<path d="M4710 2871 c0 -6 5 -11 10 -11 6 0 15 -10 20 -22 6 -15 9 -18 9 -7 1
12 8 15 26 11 34 -6 32 16 -2 24 -16 3 -36 8 -45 11 -10 2 -18 0 -18 -6z"/>
<path d="M1552 2840 c-14 -22 7 -43 37 -38 19 3 19 4 -3 29 -21 25 -24 25 -34
9z"/>
<path d="M1525 2800 c3 -5 10 -10 16 -10 5 0 9 5 9 10 0 6 -7 10 -16 10 -8 0
-12 -4 -9 -10z"/>
<path d="M1502 2770 c-12 -10 -38 -21 -59 -25 -92 -17 -230 -111 -283 -193
-25 -39 -40 -52 -65 -56 -32 -6 -33 -9 -28 -41 5 -31 3 -35 -37 -54 -37 -18
-47 -19 -69 -8 -23 11 -26 19 -29 67 -2 41 2 66 18 98 31 61 23 72 -55 74 -36
1 -73 2 -82 2 -10 1 -21 10 -25 21 -6 19 -6 18 -7 -2 -1 -13 -7 -23 -16 -23
-19 0 -19 -18 2 -55 13 -25 16 -56 14 -182 -2 -105 1 -153 8 -153 6 0 11 -7
11 -15 0 -8 9 -15 20 -15 11 0 20 -4 20 -8 0 -5 -20 -9 -45 -9 -32 0 -45 5
-48 16 -4 13 -5 12 -6 -2 -2 -33 -69 -94 -109 -101 l-37 -5 0 -53 0 -52 -40
-10 c-34 -9 -39 -15 -37 -34 3 -21 -16 -52 -65 -107 -10 -11 -17 -24 -15 -30
2 -5 1 -24 -3 -42 -5 -31 -9 -33 -45 -33 l-40 0 0 129 c0 82 4 132 11 136 24
15 27 50 5 68 -12 11 -22 14 -24 8 -2 -7 -34 -11 -78 -11 -41 0 -74 -3 -74 -7
1 -5 7 -19 15 -33 11 -19 14 -66 15 -192 0 -93 -4 -168 -8 -168 -5 0 -31 7
-58 15 -58 17 -54 17 -53 8 3 -20 -3 -23 -24 -12 -21 12 -21 11 -4 -8 9 -11
14 -23 10 -26 -3 -4 2 -17 13 -29 l19 -22 -29 18 c-26 17 -28 17 -23 2 4 -10
3 -14 -3 -11 -5 3 -14 -3 -19 -14 -8 -14 -8 -21 2 -25 6 -3 0 -3 -16 1 l-27 5
2 -393 c2 -272 6 -394 14 -394 6 0 19 -8 29 -18 9 -10 24 -16 31 -13 18 7 12
-32 -7 -45 -9 -7 -5 -7 15 -3 23 5 27 4 21 -6 -6 -10 -4 -12 11 -6 10 4 38 10
61 13 l42 5 3 -114 c2 -95 0 -117 -14 -137 -22 -29 -16 -40 17 -33 18 3 25 0
25 -12 0 -9 -5 -16 -11 -16 -8 0 -10 -24 -7 -83 4 -62 2 -88 -8 -102 -24 -32
-17 -41 27 -37 32 3 40 1 37 -9 -3 -8 -14 -15 -25 -17 -23 -3 -38 -28 -23 -37
6 -4 10 -31 10 -61 l0 -54 50 0 50 0 0 81 c0 44 -4 78 -9 75 -5 -3 -11 1 -15
9 -4 11 1 15 19 15 32 0 41 17 20 40 -12 14 -16 35 -15 87 2 93 2 93 -15 93
-8 0 -15 4 -15 9 0 13 17 23 22 13 1 -4 13 -3 26 3 l22 12 -20 26 c-17 21 -20
40 -20 117 l0 93 37 -6 c40 -7 56 -22 49 -50 -3 -11 2 -21 11 -24 27 -11 73
-67 69 -85 -3 -12 6 -18 41 -23 l45 -7 -4 -39 c-3 -34 -1 -39 17 -40 47 -1 70
-11 102 -44 18 -19 33 -30 33 -25 0 6 20 10 45 10 26 0 45 -5 45 -11 0 -6 -9
-9 -20 -6 -11 3 -20 0 -20 -5 0 -6 -10 -19 -22 -29 -11 -11 -16 -19 -11 -19 6
0 13 -36 15 -82 4 -68 2 -89 -13 -118 -11 -19 -19 -38 -19 -42 0 -10 145 -11
189 -2 26 6 30 10 25 28 -4 11 -13 25 -20 29 -9 5 -14 25 -14 53 0 41 3 46 32
59 27 11 35 11 52 -1 11 -8 29 -14 39 -14 14 0 18 -6 15 -27 -3 -24 1 -28 30
-34 17 -3 41 -18 52 -32 11 -13 41 -39 68 -56 l49 -31 146 0 c91 0 147 4 147
10 0 6 8 10 18 10 12 0 13 -3 5 -8 -7 -4 16 -9 51 -10 55 -2 65 0 69 15 4 17
5 17 6 1 1 -14 10 -18 36 -18 19 0 35 5 35 10 0 6 5 10 11 10 5 0 7 -5 4 -10
-4 -6 5 -10 19 -10 21 0 26 5 26 26 0 14 4 23 10 19 6 -4 8 -10 5 -15 -11 -18
16 -20 42 -3 l27 18 -34 6 -35 6 41 2 c26 0 47 8 55 18 12 14 12 16 0 8 -10
-5 -12 -4 -7 4 4 6 11 9 15 6 5 -2 16 4 26 15 10 11 29 20 42 20 13 0 26 7 29
15 11 27 33 16 39 -19 5 -22 1 -44 -9 -64 -18 -36 -16 -38 43 -41 34 -2 41 0
35 11 -6 10 -5 10 9 -1 14 -11 18 -11 23 4 4 10 2 26 -4 36 -14 22 -16 109 -3
109 6 0 17 -10 25 -22 13 -18 16 -19 16 -6 0 10 14 21 35 28 52 17 77 59 74
124 -2 50 0 56 28 80 17 14 38 26 47 26 9 0 16 5 16 10 0 6 11 10 24 10 20 0
24 4 21 21 -4 20 -1 21 37 16 27 -4 37 -2 27 4 -10 6 -3 9 24 9 22 0 55 7 74
17 33 15 37 15 64 -1 27 -16 31 -16 57 -1 27 16 27 19 24 91 l-4 74 99 0 100
0 6 -112 c6 -96 5 -113 -10 -123 -9 -7 -14 -19 -11 -27 6 -14 59 -17 166 -10
26 2 28 14 6 36 -13 14 -16 45 -17 179 l-2 163 45 -7 c25 -4 56 -2 69 3 31 11
78 1 85 -18 4 -9 13 -13 23 -10 10 3 42 6 71 7 28 2 52 6 52 11 0 4 7 8 15 8
8 0 15 5 15 10 0 7 7 7 21 0 11 -7 26 -9 34 -7 7 3 18 0 24 -6 7 -7 11 -7 11
-1 0 11 102 10 120 -1 6 -3 10 -2 10 4 0 5 11 6 27 2 23 -6 29 -15 35 -47 10
-59 9 -172 -2 -179 -20 -12 -10 -35 15 -35 14 0 25 -4 25 -10 0 -5 -6 -10 -14
-10 -11 0 -15 -18 -18 -73 -2 -39 -8 -80 -12 -89 -7 -16 -1 -18 58 -18 l67 0
-14 28 c-9 16 -13 51 -12 90 3 59 2 62 -21 62 -25 0 -33 15 -11 22 6 3 22 4
35 3 25 -2 28 8 10 26 -9 8 -12 43 -10 120 3 99 5 109 22 109 11 0 23 -7 28
-16 5 -10 25 -16 55 -17 l47 -2 0 -65 c0 -38 6 -72 14 -82 12 -17 14 -17 30 0
11 13 16 37 16 81 0 62 17 100 40 86 5 -3 10 -1 10 4 0 18 38 12 43 -6 4 -17
5 -17 6 0 2 26 28 21 35 -8 7 -28 51 -40 122 -32 28 3 44 1 44 -6 0 -6 6 -4
13 4 39 48 113 65 144 33 7 -7 20 -11 27 -8 8 3 30 1 49 -4 19 -5 41 -6 48 -1
8 5 20 2 31 -7 14 -13 27 -14 87 -5 38 6 97 11 130 11 50 0 64 -4 87 -25 15
-14 38 -25 50 -25 24 0 24 -2 24 -94 0 -53 -4 -98 -10 -101 -20 -12 -10 -35
15 -35 16 0 25 -6 25 -15 0 -10 -7 -14 -22 -12 -13 2 -17 2 -10 0 14 -5 17
-163 3 -179 -5 -5 -11 -18 -15 -29 -5 -19 -2 -20 71 -17 43 2 80 5 82 7 2 3
-4 16 -14 31 -14 21 -16 39 -10 102 3 42 12 80 18 84 7 4 -13 5 -43 3 -36 -4
-48 -2 -35 3 l20 9 -20 6 c-11 3 -3 6 20 5 71 0 73 1 68 22 -3 11 -9 20 -14
20 -5 0 -9 44 -9 98 0 86 3 101 20 117 11 10 22 16 25 14 4 -4 12 -59 15 -99
0 -12 3 -11 11 3 6 9 15 14 22 10 6 -4 23 -8 36 -9 14 -2 27 -7 28 -11 2 -5
43 -5 91 0 163 15 179 20 187 56 l6 27 72 -8 c40 -4 83 -13 96 -18 25 -11 61
-5 61 11 0 14 27 11 34 -3 5 -10 7 -10 12 0 4 8 32 12 88 12 79 0 83 -1 94
-25 7 -14 12 -32 12 -40 0 -8 5 -15 10 -15 7 0 10 212 10 616 0 561 -5 679
-24 567 -10 -63 -17 -67 -106 -71 -67 -4 -80 -2 -80 11 0 26 -20 30 -28 7 -8
-22 -8 -22 -25 4 -19 28 -44 34 -53 12 -3 -8 -27 -16 -58 -20 -28 -3 -66 -8
-83 -12 -30 -6 -31 -5 -38 35 -6 35 -10 41 -31 41 -13 0 -24 5 -24 11 0 6 -6
9 -14 6 -7 -3 -33 1 -57 9 -24 9 -54 13 -68 11 -13 -3 -36 -1 -52 3 -19 6 -29
4 -32 -5 -7 -16 -47 -27 -47 -12 0 7 -5 4 -11 -5 -12 -22 -33 -24 -25 -3 3 8
1 15 -4 15 -6 0 -10 -9 -10 -20 0 -11 -6 -20 -12 -20 -9 0 -9 -3 1 -9 9 -6 11
-15 6 -27 -4 -11 -7 -29 -6 -41 3 -30 -13 -29 -33 2 -13 19 -16 51 -16 154 0
71 4 132 9 135 5 3 11 17 13 31 5 26 -1 29 -49 25 -15 -1 -23 4 -23 14 0 8 -8
17 -17 19 -10 3 -1 5 20 6 20 0 37 -3 37 -9 0 -5 7 -7 16 -3 10 4 12 8 5 12
-18 12 -23 214 -6 255 22 52 20 56 -34 56 -39 0 -51 4 -54 18 -4 15 -5 15 -6
-2 -1 -14 -7 -17 -27 -13 -23 4 -25 2 -18 -27 3 -17 10 -35 15 -40 14 -16 11
-230 -3 -245 -11 -11 -9 -12 10 -6 18 5 22 3 22 -15 0 -14 -5 -20 -12 -17 -7
2 -21 1 -30 -2 -16 -6 -16 -9 -3 -35 11 -20 15 -62 15 -151 l0 -123 -35 -12
c-19 -6 -35 -17 -35 -24 0 -6 -10 -20 -22 -31 -18 -14 -36 -18 -87 -17 -36 1
-67 5 -70 10 -3 4 -13 7 -21 8 -8 1 -34 4 -57 8 -36 7 -43 5 -53 -14 -6 -11
-16 -18 -22 -14 -17 11 -68 14 -68 5 0 -13 -40 -21 -40 -8 -1 7 -8 3 -18 -9
-10 -11 -32 -23 -49 -27 -26 -5 -37 -1 -67 28 -22 20 -43 32 -51 29 -8 -4 -15
-2 -15 2 0 14 -92 16 -117 3 -12 -6 -25 -25 -28 -40 -7 -31 -35 -40 -36 -11 0
13 -2 12 -9 -5 -9 -22 -40 -23 -40 -2 0 4 -7 6 -15 3 -10 -4 -15 0 -15 11 0 9
-4 13 -10 10 -6 -4 -10 28 -10 90 0 73 -4 102 -17 121 l-16 26 -13 -24 c-8
-14 -13 -59 -14 -115 0 -78 -2 -91 -15 -87 -8 4 -15 1 -15 -6 0 -10 -3 -10
-14 -1 -10 8 -16 9 -21 1 -3 -6 -11 -8 -16 -4 -6 3 -13 -3 -16 -15 -3 -12 -8
-21 -12 -22 -3 0 -14 -2 -23 -4 -15 -3 -17 12 -20 147 -2 104 1 156 9 171 17
30 16 37 -6 37 -29 0 -51 11 -51 25 0 8 9 11 24 8 l24 -5 -4 90 c-3 65 1 100
11 126 l15 36 -35 1 c-89 3 -90 2 -85 -12 2 -8 6 -65 8 -126 3 -89 7 -113 18
-113 28 0 14 -29 -16 -32 l-30 -3 16 -30 c13 -25 15 -53 11 -160 -3 -71 -8
-137 -11 -145 -7 -17 -56 -24 -56 -8 0 6 -6 6 -14 -1 -8 -7 -28 -13 -45 -13
-17 -1 -31 -6 -31 -12 0 -6 -5 -3 -11 7 -6 9 -14 15 -20 12 -5 -4 -9 0 -9 7 0
9 -3 9 -8 2 -9 -14 -63 -24 -91 -17 -13 3 -21 14 -22 27 0 20 -1 20 -9 1 -7
-17 -9 -17 -9 -2 -1 14 -11 17 -66 17 -58 0 -65 -2 -65 -20 0 -17 -7 -20 -50
-20 -30 0 -50 4 -50 11 0 7 -7 8 -17 4 -10 -4 -31 -11 -48 -15 l-30 -7 2 233
c1 199 3 236 17 249 19 20 21 41 4 47 -7 3 -49 4 -93 4 -69 -1 -80 -3 -83 -19
-2 -10 3 -26 12 -36 13 -14 14 -40 9 -174 l-6 -157 -86 0 c-47 0 -92 4 -99 9
-10 6 -13 33 -11 104 2 82 0 99 -16 117 -23 25 -47 26 -70 0 -23 -25 -36 -25
-58 0 -9 11 -25 21 -34 22 -10 0 -22 2 -28 3 -5 2 -19 4 -30 5 -11 1 -15 4 -7
7 6 2 12 9 12 15 0 6 -8 4 -18 -5 -10 -10 -26 -17 -35 -17 -16 0 -30 28 -25
51 2 8 -7 15 -19 17 -13 2 -23 8 -23 13 0 5 -5 9 -11 9 -6 0 -28 15 -48 33
l-36 32 3 77 c2 61 -1 85 -19 122 -11 25 -29 48 -40 51 -10 4 -26 13 -34 21
-13 13 -17 13 -40 -2 l-25 -16 0 70 c0 42 6 81 15 98 21 42 5 56 -64 52 -53
-3 -56 -4 -53 -28 2 -14 8 -30 13 -37 6 -6 9 -36 7 -67 -2 -42 -7 -56 -18 -56
-19 0 -51 20 -32 20 7 0 10 5 7 10 -3 6 -15 10 -25 10 -10 0 -25 6 -32 14 -29
30 -46 55 -42 59 10 10 -23 25 -64 30 -56 6 -70 20 -14 15 23 -2 42 -1 42 1 0
11 -54 51 -68 51 -9 0 -12 3 -9 7 14 13 -99 74 -164 88 -19 4 -40 12 -46 17
-7 6 -24 7 -38 4 -14 -4 -25 -2 -25 3 0 17 -47 18 -68 1z m155 -76 c-3 -3 -12
-4 -19 -1 -8 3 -5 6 6 6 11 1 17 -2 13 -5z m-76 -54 c5 0 4 -6 -3 -14 -11 -12
-14 -9 -19 18 -3 17 -3 36 0 41 3 6 7 -2 9 -17 2 -16 8 -28 13 -28z m168 46
c-2 -2 -15 -9 -29 -16 -23 -12 -24 -12 -11 3 7 10 20 17 29 17 8 0 13 -2 11
-4z m48 -35 c1 -17 -4 -19 -50 -14 -67 7 -73 13 -14 13 26 0 47 5 47 10 0 19
16 10 17 -9z m381 -38 c-10 -2 -28 -2 -40 0 -13 2 -5 4 17 4 22 1 32 -1 23 -4z
m-958 -128 c10 -12 10 -15 -2 -15 -8 0 -15 7 -15 15 0 8 1 15 2 15 2 0 8 -7
15 -15z m700 -15 c0 -5 -2 -10 -4 -10 -3 0 -8 5 -11 10 -3 6 -1 10 4 10 6 0
11 -4 11 -10z m-56 -14 c-21 -15 -30 -14 -19 3 3 6 14 11 23 11 13 0 13 -2 -4
-14z m73 -28 c-3 -7 -5 -2 -5 12 0 14 2 19 5 13 2 -7 2 -19 0 -25z m-1007
-128 c0 -5 -5 -10 -11 -10 -5 0 -7 5 -4 10 3 6 8 10 11 10 2 0 4 -4 4 -10z
m1392 -45 c-6 -34 -12 -32 -12 6 0 16 4 28 9 25 4 -3 6 -17 3 -31z m-1485 -21
c-3 -3 -12 -4 -19 -1 -8 3 -5 6 6 6 11 1 17 -2 13 -5z m43 -9 c0 -8 -7 -15
-15 -15 -8 0 -15 7 -15 15 0 8 7 15 15 15 8 0 15 -7 15 -15z m35 5 c-3 -5 -10
-10 -16 -10 -5 0 -9 5 -9 10 0 6 7 10 16 10 8 0 12 -4 9 -10z m63 1 c24 -15
10 -45 -21 -46 -34 -2 -44 10 -20 24 10 6 12 11 6 11 -7 0 -13 5 -13 10 0 12
30 13 48 1z m1351 -58 c1 -7 -3 -13 -9 -13 -5 0 -10 15 -9 33 0 27 2 29 9 12
5 -11 9 -26 9 -32z m-1419 27 c0 -5 -4 -10 -10 -10 -5 0 -10 5 -10 10 0 6 5
10 10 10 6 0 10 -4 10 -10z m117 -22 c-3 -7 -5 -2 -5 12 0 14 2 19 5 13 2 -7
2 -19 0 -25z m934 -10 c-10 -11 -11 -9 -5 6 6 15 4 17 -6 11 -9 -6 -11 -4 -5
4 5 9 10 10 18 2 8 -8 7 -14 -2 -23z m78 -22 c-2 -2 -13 8 -23 22 l-19 27 24
-22 c12 -12 21 -24 18 -27z m-146 -3 c-7 -2 -19 -2 -25 0 -7 3 -2 5 12 5 14 0
19 -2 13 -5z m50 0 c-7 -2 -19 -2 -25 0 -7 3 -2 5 12 5 14 0 19 -2 13 -5z
m382 -13 c-3 -4 0 -11 5 -13 6 -3 5 -4 -1 -3 -7 1 -13 10 -15 19 -1 9 2 15 7
11 5 -3 7 -9 4 -14z m-1290 -10 c3 -5 -1 -10 -10 -10 -9 0 -13 5 -10 10 3 6 8
10 10 10 2 0 7 -4 10 -10z m-105 -41 c0 -11 -4 -18 -10 -14 -5 3 -7 12 -3 20
7 21 13 19 13 -6z m1230 11 c0 -13 -11 -13 -30 0 -12 8 -11 10 8 10 12 0 22
-4 22 -10z m-1127 -32 c2 -18 4 -34 3 -35 -6 -7 -45 11 -40 18 3 5 9 7 13 4 5
-2 7 7 5 20 -4 37 13 30 19 -7z m4097 8 c0 -3 -4 -8 -10 -11 -5 -3 -10 -1 -10
4 0 6 5 11 10 11 6 0 10 -2 10 -4z m-2411 -201 c0 -5 -6 -1 -14 9 -8 11 -15
24 -15 30 0 5 7 1 15 -10 8 -10 14 -23 14 -29z m-169 -19 c0 -3 -4 -8 -10 -11
-5 -3 -10 -1 -10 4 0 6 5 11 10 11 6 0 10 -2 10 -4z m-40 -16 c0 -5 -7 -7 -15
-4 -8 4 -15 8 -15 10 0 2 7 4 15 4 8 0 15 -4 15 -10z m69 -42 c-9 -7 -20 -20
-23 -28 -3 -8 -4 -5 -2 8 3 14 -1 22 -10 22 -8 0 -14 -8 -14 -17 0 -15 -2 -16
-10 -3 -9 13 -11 13 -20 0 -8 -13 -10 -13 -10 1 0 23 4 25 57 28 41 2 46 0 32
-11z m171 -8 c0 -5 -7 -10 -15 -10 -8 0 -15 5 -15 10 0 6 7 10 15 10 8 0 15
-4 15 -10z m-207 -67 c-7 -2 -21 -2 -30 0 -10 3 -4 5 12 5 17 0 24 -2 18 -5z
m67 -3 c0 -5 -11 -10 -25 -10 -14 0 -25 5 -25 10 0 6 11 10 25 10 14 0 25 -4
25 -10z m125 -10 c3 -5 1 -10 -4 -10 -6 0 -11 5 -11 10 0 6 2 10 4 10 3 0 8
-4 11 -10z m-148 -27 c0 -23 -14 -32 -38 -26 -26 7 -14 22 14 17 12 -2 16 -1
8 2 -11 5 -11 8 0 15 8 5 14 9 15 9 0 0 1 -8 1 -17z m223 -23 c-11 -7 -11 -10
-2 -10 7 0 10 -5 6 -11 -4 -7 -10 -7 -16 -1 -12 12 -2 32 15 32 7 0 6 -4 -3
-10z m-280 -20 c0 -5 -7 -10 -15 -10 -8 0 -15 5 -15 10 0 6 7 10 15 10 8 0 15
-4 15 -10z m-169 -27 c13 -16 12 -17 -3 -4 -10 7 -18 15 -18 17 0 8 8 3 21
-13z m413 -7 c-1 -9 2 -16 7 -16 5 0 9 7 9 16 0 14 3 14 15 4 24 -20 18 -26
-25 -28 -33 -2 -40 0 -40 16 0 10 3 22 7 26 11 11 28 0 27 -18z m-224 -1 c0
-8 -2 -15 -4 -15 -2 0 -6 7 -10 15 -3 8 -1 15 4 15 6 0 10 -7 10 -15z m1678
-12 c-10 -2 -26 -2 -35 0 -10 3 -2 5 17 5 19 0 27 -2 18 -5z m-1714 -31 c0
-12 3 -19 8 -16 4 3 8 1 8 -5 0 -5 -4 -13 -10 -16 -20 -12 -9 -21 20 -17 40 6
38 -5 -2 -18 -31 -9 -30 -10 15 -6 51 4 52 4 37 -25 -9 -15 -15 -17 -30 -9
-10 5 -29 9 -42 9 -20 -1 -21 -2 -3 -6 11 -3 28 -15 37 -26 10 -11 18 -15 18
-9 0 7 6 12 13 12 10 0 12 -11 8 -42 l-6 -43 -53 -3 c-29 -2 -50 -7 -47 -12 3
-5 26 -7 50 -3 38 5 45 3 45 -11 0 -16 -3 -18 -52 -21 -15 -1 -35 -8 -44 -16
-16 -13 -17 -11 -12 16 7 33 -18 104 -36 106 -6 1 0 4 14 8 18 5 24 13 21 27
-7 39 -2 90 15 142 6 21 29 8 28 -16z m483 -4 c-3 -7 -5 -2 -5 12 0 14 2 19 5
13 2 -7 2 -19 0 -25z m-412 -4 c-10 -8 -13 -14 -7 -14 7 0 12 -4 12 -10 0 -5
-11 -10 -25 -10 -26 0 -34 15 -12 23 7 3 5 6 -6 6 -14 1 -15 4 -5 14 6 8 23
11 37 9 23 -5 23 -6 6 -18z m949 17 c4 -5 -3 -7 -14 -4 -23 6 -26 13 -6 13 8
0 17 -4 20 -9z m491 -1 c3 -5 2 -10 -4 -10 -5 0 -13 5 -16 10 -3 6 -2 10 4 10
5 0 13 -4 16 -10z m245 -12 c0 -6 -6 -5 -15 2 -8 7 -15 14 -15 16 0 2 7 1 15
-2 8 -4 15 -11 15 -16z m1 -26 c-7 -2 -18 1 -23 6 -8 8 -4 9 13 5 13 -4 18 -8
10 -11z m-1491 -2 c0 -5 -7 -7 -15 -4 -8 4 -15 8 -15 10 0 2 7 4 15 4 8 0 15
-4 15 -10z m120 0 c0 -5 -4 -10 -9 -10 -6 0 -13 5 -16 10 -3 6 1 10 9 10 9 0
16 -4 16 -10z m627 4 c-3 -3 -12 -4 -19 -1 -8 3 -5 6 6 6 11 1 17 -2 13 -5z
m56 -1 c-7 -2 -21 -2 -30 0 -10 3 -4 5 12 5 17 0 24 -2 18 -5z m-723 -22 c0
-6 -4 -13 -10 -16 -5 -3 -10 1 -10 9 0 9 5 16 10 16 6 0 10 -4 10 -9z m-81
-23 c0 -22 -1 -22 -9 -3 -5 11 -9 14 -9 7 -1 -7 -6 -10 -12 -6 -8 4 -7 9 2 15
22 14 29 11 28 -13z m31 -36 c0 -4 -11 -12 -25 -19 -21 -9 -25 -9 -25 6 0 11
9 17 25 19 14 1 25 -2 25 -6z m-2195 -52 c3 -5 -1 -10 -10 -10 -9 0 -13 5 -10
10 3 6 8 10 10 10 2 0 7 -4 10 -10z m55 -6 c0 -2 -7 -4 -15 -4 -8 0 -15 4 -15
10 0 5 7 7 15 4 8 -4 15 -8 15 -10z m85 6 c3 -5 -1 -10 -9 -10 -9 0 -16 5 -16
10 0 6 4 10 9 10 6 0 13 -4 16 -10z m85 0 c0 -5 -5 -10 -11 -10 -5 0 -7 5 -4
10 3 6 8 10 11 10 2 0 4 -4 4 -10z m125 0 c3 -5 1 -10 -4 -10 -6 0 -11 5 -11
10 0 6 2 10 4 10 3 0 8 -4 11 -10z m1276 -2 c0 -10 2 -10 6 0 2 6 19 12 36 11
30 0 31 -1 9 -11 -12 -6 -26 -25 -31 -42 -5 -17 -10 -23 -10 -13 -1 9 -7 17
-13 17 -9 0 -8 4 2 10 13 9 13 10 0 10 -9 0 -26 -8 -40 -17 -22 -16 -23 -16
-17 0 4 11 1 17 -8 17 -8 0 -15 7 -15 15 0 19 80 22 81 3z m174 2 c-4 -6 -12
-7 -18 -4 -7 4 -9 3 -4 -1 4 -5 1 -15 -7 -24 -8 -9 -16 -25 -19 -36 -3 -16 -6
-13 -12 13 -4 19 -14 36 -21 39 -30 11 -11 23 37 23 31 0 48 -4 44 -10z
m-2028 -6 c-3 -3 -12 -4 -19 -1 -8 3 -5 6 6 6 11 1 17 -2 13 -5z m2249 -101
c-2 -10 -13 -20 -26 -21 -14 -2 -20 0 -15 7 3 6 10 9 15 6 4 -3 10 2 14 10 7
20 15 19 12 -2z m64 -9 c0 -8 -5 -12 -10 -9 -6 4 -8 11 -5 16 9 14 15 11 15
-7z m-90 -28 c0 -18 -38 -36 -73 -36 -32 1 -38 3 -25 10 9 6 30 11 47 13 17 2
34 7 38 10 7 8 13 9 13 3z m-395 -36 c3 -5 -3 -10 -14 -10 -12 0 -21 5 -21 10
0 6 6 10 14 10 8 0 18 -4 21 -10z m-2035 -60 c-9 -6 -19 -5 -25 1 -6 6 -5 13
5 19 9 6 19 5 25 -1 6 -6 5 -13 -5 -19z m2230 16 c0 -2 -7 -6 -15 -10 -8 -3
-15 -1 -15 4 0 6 7 10 15 10 8 0 15 -2 15 -4z m644 -30 c-3 -9 -10 -16 -15
-16 -5 0 -4 9 3 20 14 22 21 20 12 -4z m531 -7 c13 -6 2 -8 -34 -6 -35 1 -56
7 -59 15 -3 10 5 12 34 6 22 -4 48 -11 59 -15z m-538 -25 c-3 -3 -12 -4 -19
-1 -8 3 -5 6 6 6 11 1 17 -2 13 -5z m518 -4 c-45 -11 -77 -11 -70 0 3 6 27 9
53 9 42 -1 44 -2 17 -9z m-3375 -20 c0 -5 -9 -10 -20 -10 -11 0 -20 5 -20 10
0 6 9 10 20 10 11 0 20 -4 20 -10z m2788 -7 c-10 -2 -26 -2 -35 0 -10 3 -2 5
17 5 19 0 27 -2 18 -5z m59 -9 c-3 -3 -12 -4 -19 -1 -8 3 -5 6 6 6 11 1 17 -2
13 -5z m-894 -21 c-7 -2 -21 -2 -30 0 -10 3 -4 5 12 5 17 0 24 -2 18 -5z m70
0 c-7 -2 -19 -2 -25 0 -7 3 -2 5 12 5 14 0 19 -2 13 -5z m375 -6 c6 0 12 -5
12 -10 0 -11 -67 0 -90 14 -10 7 -2 8 25 3 22 -4 46 -7 53 -7z m47 -37 c17 -8
16 -9 -7 -7 -15 2 -30 6 -34 10 -10 10 17 8 41 -3z m-65 -21 c9 -5 -6 -9 -42
-9 -43 0 -58 4 -58 14 0 11 10 13 43 9 23 -3 49 -9 57 -14z m-203 -11 c-2 -7
8 -23 22 -35 l26 -23 -50 0 c-42 1 -47 3 -34 13 9 7 19 22 23 35 4 12 10 22
13 22 2 0 3 -6 0 -12z m-81 -48 c10 0 14 -3 11 -7 -8 -8 -137 -6 -145 2 -3 3
4 8 16 12 12 3 19 10 16 15 -4 6 4 5 16 -2 18 -9 24 -9 30 0 6 9 9 9 13 -1 3
-9 6 -7 7 6 1 19 2 18 10 -2 5 -13 17 -23 26 -23z m305 8 c8 -31 -8 -49 -22
-27 -5 9 -9 10 -9 2 0 -6 -12 -16 -27 -22 -24 -9 -21 -10 20 -5 39 5 47 4 47
-10 0 -13 -8 -15 -42 -11 -32 3 -36 2 -18 -4 l25 -8 -30 -5 c-24 -4 -22 -5 14
-7 24 0 41 -4 38 -8 -4 -3 -2 -12 4 -20 9 -10 6 -13 -15 -13 -27 0 -35 15 -13
23 6 3 3 6 -8 6 -11 1 -29 -9 -39 -21 -18 -21 -19 -21 -32 -3 -7 10 -11 21 -9
26 3 4 1 10 -5 14 -14 9 -13 42 2 47 6 2 8 10 4 17 -5 7 -14 10 -22 7 -19 -7
-18 0 4 30 15 21 24 24 71 21 50 -2 55 -4 62 -29z m-1974 -14 c-3 -3 -12 -4
-19 -1 -8 3 -5 6 6 6 11 1 17 -2 13 -5z m50 0 c-3 -3 -12 -4 -19 -1 -8 3 -5 6
6 6 11 1 17 -2 13 -5z m40 0 c-3 -3 -12 -4 -19 -1 -8 3 -5 6 6 6 11 1 17 -2
13 -5z m90 0 c-3 -3 -12 -4 -19 -1 -8 3 -5 6 6 6 11 1 17 -2 13 -5z m50 0 c-3
-3 -12 -4 -19 -1 -8 3 -5 6 6 6 11 1 17 -2 13 -5z m130 0 c-3 -3 -12 -4 -19
-1 -8 3 -5 6 6 6 11 1 17 -2 13 -5z m880 0 c-3 -3 -12 -4 -19 -1 -8 3 -5 6 6
6 11 1 17 -2 13 -5z m953 -34 c0 -12 -8 -12 -35 0 -18 8 -17 9 8 9 15 1 27 -3
27 -9z m-30 -30 c0 -5 -8 -10 -17 -10 -15 0 -16 2 -3 10 19 12 20 12 20 0z
m73 -25 c-7 -21 -13 -19 -13 6 0 11 4 18 10 14 5 -3 7 -12 3 -20z m564 3 c-3
-8 -6 -5 -6 6 -1 11 2 17 5 13 3 -3 4 -12 1 -19z m-637 -6 c0 -4 -9 -13 -20
-20 -19 -12 -20 -11 -8 8 13 20 28 27 28 12z m803 -9 c-13 -2 -33 -2 -45 0
-13 2 -3 4 22 4 25 0 35 -2 23 -4z m673 -28 c-23 -18 -36 -19 -36 -4 0 5 4 8
9 4 5 -3 12 -1 16 5 3 5 12 10 18 10 7 0 3 -7 -7 -15z m-1446 -14 c-8 -6 -18
-7 -23 -4 -5 3 -13 0 -17 -7 -4 -7 -13 -9 -19 -6 -23 15 -9 26 32 26 29 0 38
-3 27 -9z m40 -11 c0 -5 -2 -10 -4 -10 -3 0 -8 5 -11 10 -3 6 -1 10 4 10 6 0
11 -4 11 -10z m167 4 c-3 -3 -12 -4 -19 -1 -8 3 -5 6 6 6 11 1 17 -2 13 -5z
m-487 -24 c0 -5 -7 -10 -16 -10 -9 0 -12 -5 -8 -12 4 -7 3 -8 -4 -4 -6 4 -9
13 -5 21 6 17 33 21 33 5z m50 -14 c0 -2 -9 -6 -20 -9 -11 -3 -20 -1 -20 4 0
5 9 9 20 9 11 0 20 -2 20 -4z m167 -32 c-3 -3 -12 -4 -19 -1 -8 3 -5 6 6 6 11
1 17 -2 13 -5z m-154 -11 c-7 -2 -19 -2 -25 0 -7 3 -2 5 12 5 14 0 19 -2 13
-5z m-60 -43 c4 -16 0 -20 -19 -20 -15 0 -24 6 -24 16 0 14 3 14 15 4 12 -10
15 -10 15 4 0 22 7 20 13 -4z m41 -12 c7 -5 4 -8 -6 -8 -12 0 -18 7 -17 23 0
15 2 17 6 7 3 -8 11 -18 17 -22z m173 6 c-3 -3 -12 -4 -19 -1 -8 3 -5 6 6 6
11 1 17 -2 13 -5z m-219 -41 c-10 -2 -26 -2 -35 0 -10 3 -2 5 17 5 19 0 27 -2
18 -5z m178 -41 c-17 -16 -18 -16 -5 5 7 12 15 20 18 17 3 -2 -3 -12 -13 -22z
m-684 -21 c-12 -7 -62 -4 -62 5 0 2 17 4 38 4 23 0 32 -3 24 -9z m-986 -87
c-3 -9 -6 -20 -6 -25 0 -5 -4 -9 -9 -9 -6 0 -8 9 -6 21 3 15 0 19 -10 15 -8
-3 -15 -1 -15 4 0 6 12 10 26 10 20 0 25 -4 20 -16z m-756 -29 c0 -8 -4 -15
-10 -15 -5 0 -10 7 -10 15 0 8 5 15 10 15 6 0 10 -7 10 -15z m30 0 c0 -8 -4
-15 -10 -15 -5 0 -10 7 -10 15 0 8 5 15 10 15 6 0 10 -7 10 -15z m617 -7 c-3
-8 -6 -5 -6 6 -1 11 2 17 5 13 3 -3 4 -12 1 -19z m1228 2 c-3 -5 -14 -10 -23
-10 -15 0 -15 2 -2 10 20 13 33 13 25 0z m-48 -6 c-3 -3 -12 -4 -19 -1 -8 3
-5 6 6 6 11 1 17 -2 13 -5z m-1067 -8 c0 -11 -19 -15 -25 -6 -3 5 1 10 9 10 9
0 16 -2 16 -4z m1291 -20 c-7 -8 -10 -26 -7 -40 3 -14 1 -28 -3 -30 -9 -6 -13
32 -6 62 3 12 10 22 16 22 8 0 8 -4 0 -14z m-338 -3 c-7 -2 -19 -2 -25 0 -7 3
-2 5 12 5 14 0 19 -2 13 -5z m-13 -17 c0 -2 -6 -9 -14 -15 -11 -9 -16 -9 -22
0 -4 7 -3 9 4 5 6 -3 13 -2 17 4 6 10 15 14 15 6z m-990 -32 c0 -8 -6 -14 -14
-14 -8 0 -21 -3 -30 -6 -10 -4 -16 -1 -16 8 0 9 -10 15 -29 15 -20 0 -28 -4
-24 -14 3 -7 -2 -13 -11 -13 -24 0 -19 29 7 35 30 6 100 11 110 7 4 -2 7 -10
7 -18z m40 16 c0 -5 -2 -10 -4 -10 -3 0 -8 5 -11 10 -3 6 -1 10 4 10 6 0 11
-4 11 -10z m-193 -36 c-3 -3 -12 -4 -19 -1 -8 3 -5 6 6 6 11 1 17 -2 13 -5z
m80 0 c-3 -3 -12 -4 -19 -1 -8 3 -5 6 6 6 11 1 17 -2 13 -5z m1407 -44 c-6 -6
-10 -2 -11 12 -2 16 1 18 10 9 7 -7 8 -14 1 -21z m-454 -122 c0 -13 -23 -5
-28 10 -2 7 2 10 12 6 9 -3 16 -11 16 -16z m75 13 c3 -5 2 -12 -3 -15 -5 -3
-9 1 -9 9 0 17 3 19 12 6z m-718 -17 c-3 -3 -12 -4 -19 -1 -8 3 -5 6 6 6 11 1
17 -2 13 -5z m573 -94 c0 -5 -4 -10 -10 -10 -5 0 -10 5 -10 10 0 6 5 10 10 10
6 0 10 -4 10 -10z m-145 -10 c-11 -5 -27 -9 -35 -9 -9 0 -8 4 5 9 11 5 27 9
35 9 9 0 8 -4 -5 -9z m108 -17 c-7 -2 -21 -2 -30 0 -10 3 -4 5 12 5 17 0 24
-2 18 -5z"/>
<path d="M951 2654 c0 -11 3 -14 6 -6 3 7 2 16 -1 19 -3 4 -6 -2 -5 -13z"/>
<path d="M2976 2545 c4 -8 8 -15 10 -15 2 0 4 7 4 15 0 8 -4 15 -10 15 -5 0
-7 -7 -4 -15z"/>
<path d="M2971 2512 c-10 -3 -3 -41 12 -60 13 -17 9 -273 -5 -290 -6 -7 -8
-15 -4 -19 3 -3 6 -1 6 6 0 8 6 11 16 7 9 -3 12 -2 8 5 -4 7 6 10 27 9 70 -4
89 -1 83 15 -4 8 -1 15 6 15 9 0 9 4 2 13 -16 20 -16 205 1 230 7 12 16 32 19
45 7 24 9 24 -104 26 -32 0 -62 0 -67 -2z"/>
<path d="M248 2433 c7 -3 16 -2 19 1 4 3 -2 6 -13 5 -11 0 -14 -3 -6 -6z"/>
<path d="M2530 2070 c0 -5 5 -10 10 -10 6 0 10 5 10 10 0 6 -4 10 -10 10 -5 0
-10 -4 -10 -10z"/>
<path d="M2977 353 c15 -11 20 -192 6 -202 -16 -10 -22 -39 -10 -43 7 -2 37
-3 67 -2 107 2 110 3 103 22 -4 9 -13 23 -20 30 -17 17 -16 154 1 164 8 5 7 8
-2 8 -7 0 -10 5 -7 10 4 6 -14 10 -47 10 -29 0 -64 3 -78 6 -16 4 -20 2 -13
-3z"/>
<path d="M3789 268 c-2 -70 1 -216 6 -240 5 -23 12 -28 28 -26 27 4 36 46 36
181 l1 97 -35 0 c-21 0 -35 -5 -36 -12z"/>
<path d="M248 163 c7 -3 16 -2 19 1 4 3 -2 6 -13 5 -11 0 -14 -3 -6 -6z"/>
<path d="M5092 160 c-4 -3 -6 -40 -4 -82 l4 -78 44 0 45 0 -3 81 -3 82 -38 1
c-22 1 -42 -1 -45 -4z"/>
<path d="M3050 72 c-50 -4 -59 -12 -52 -48 4 -22 9 -24 58 -24 l54 0 0 34 c0
41 -2 42 -60 38z"/>
</g>
</svg>
