<?xml version="1.0" standalone="no"?>
<!DOCTYPE svg PUBLIC "-//W3C//DTD SVG 20010904//EN"
 "http://www.w3.org/TR/2001/REC-SVG-20010904/DTD/svg10.dtd">
<svg version="1.0" xmlns="http://www.w3.org/2000/svg"
 width="1024.000000pt" height="1024.000000pt" viewBox="0 0 1024.000000 1024.000000"
 preserveAspectRatio="xMidYMid meet">

<g transform="translate(0.000000,1024.000000) scale(0.100000,-0.100000)"
fill="#000000" stroke="none">
<path d="M0 5375 c0 -4722 1 -4865 18 -4865 11 0 26 -8 36 -18 14 -16 15 -32
10 -104 l-7 -84 -28 4 -29 4 0 -156 0 -156 5120 0 5120 0 0 5120 0 5120 -5120
0 -5120 0 0 -4865z m2987 1725 c47 -80 134 -224 193 -320 59 -96 119 -195 134
-220 15 -25 67 -110 116 -190 49 -80 101 -167 116 -195 14 -27 48 -82 75 -122
26 -40 65 -101 85 -136 93 -157 143 -246 168 -297 14 -30 39 -70 54 -88 l27
-33 52 63 c29 35 63 76 75 92 13 16 59 72 104 125 95 114 221 272 283 356 25
33 81 106 125 162 45 55 117 147 160 203 l80 102 668 -4 c367 -2 668 0 668 3
0 4 37 53 83 110 46 57 119 151 163 209 88 118 93 124 149 190 22 27 63 75 90
109 l50 61 280 0 c154 0 323 -3 376 -6 l97 -7 4 -121 5 -121 -47 -50 c-64 -68
-296 -340 -315 -369 -15 -23 -20 -23 -298 -36 -155 -7 -289 -17 -297 -21 -13
-7 -12 -8 2 -9 9 0 20 -5 24 -12 5 -7 2 -9 -7 -4 -8 4 -4 -1 9 -12 12 -11 22
-22 22 -24 0 -3 -18 -5 -40 -6 -30 -1 -40 2 -40 13 0 8 -7 15 -15 15 -8 0 -15
-7 -15 -15 0 -8 -9 -15 -20 -15 -11 0 -36 -18 -56 -40 -20 -22 -45 -40 -56
-40 -11 0 -29 -11 -40 -25 -23 -29 -38 -32 -38 -8 0 13 -8 9 -33 -15 -18 -18
-43 -32 -55 -32 -13 0 -22 -5 -20 -13 4 -15 -37 -69 -46 -60 -3 3 -6 18 -6 32
l0 25 -33 -32 c-25 -24 -42 -32 -70 -32 -20 0 -37 -4 -37 -10 0 -5 -6 -10 -13
-10 -7 0 -26 -13 -42 -30 -22 -23 -38 -30 -67 -30 -21 0 -38 -4 -38 -8 0 -5
-19 -17 -41 -28 -23 -10 -47 -23 -53 -29 -18 -18 -78 -42 -121 -50 -22 -3 -55
-15 -73 -26 -18 -10 -50 -19 -71 -19 -41 0 -61 -14 -61 -42 0 -12 -6 -18 -17
-16 -10 2 -17 -3 -15 -9 1 -7 -6 -13 -15 -13 -12 0 -14 -3 -6 -11 5 -5 48 -14
94 -19 l84 -9 -110 4 c-67 2 -98 0 -80 -5 25 -6 19 -8 -32 -9 -50 -1 -67 -6
-91 -26 -16 -13 -33 -21 -37 -17 -5 4 -5 2 -1 -5 6 -12 -73 -121 -183 -253
-25 -30 -51 -61 -58 -70 -6 -8 -33 -42 -60 -75 -27 -33 -134 -166 -238 -295
-103 -129 -207 -256 -229 -282 -23 -26 -60 -71 -84 -100 l-43 -53 0 -885 1
-885 -81 -80 c-44 -44 -126 -129 -182 -190 -135 -147 -305 -325 -287 -300 8
11 20 26 25 33 6 8 27 31 48 52 20 21 37 43 37 48 0 5 11 17 25 26 14 10 30
28 35 42 5 13 14 24 20 24 5 0 10 5 10 12 0 9 -3 9 -12 0 -30 -30 -54 6 -25
37 9 11 9 13 0 7 -17 -9 -17 27 -1 55 11 17 11 23 1 26 -8 3 -13 25 -13 60 0
37 -5 60 -16 71 -14 13 -15 32 -10 131 4 64 7 176 8 249 0 72 4 132 7 132 11
0 7 474 -3 482 -6 4 -5 45 2 105 16 134 16 917 0 946 -14 26 -20 220 -7 228 6
3 5 35 -2 82 -10 67 -13 75 -24 60 -19 -26 -28 -11 -9 15 9 13 21 19 32 16 13
-5 14 -4 3 4 -11 8 -8 17 15 48 16 22 32 41 37 42 4 2 7 8 7 13 0 16 33 48 43
42 6 -4 7 -1 3 6 -6 9 -13 8 -28 -6 -19 -17 -21 -17 -32 -1 -7 10 -15 16 -18
13 -2 -3 -5 1 -5 8 0 8 -13 33 -30 58 -17 24 -42 68 -57 97 -15 30 -46 84 -70
120 -23 37 -55 91 -71 120 -15 28 -32 52 -37 52 -5 0 -7 4 -4 9 3 5 -5 20 -18
34 -13 14 -22 28 -20 30 8 8 -68 127 -77 121 -8 -5 -13 9 -10 29 1 4 -9 24
-22 45 -13 20 -26 45 -30 55 -4 11 -12 15 -18 11 -8 -4 -9 -3 -5 5 9 14 -41
104 -53 96 -5 -2 -8 3 -7 13 0 9 -5 16 -12 14 -8 -1 -11 2 -7 7 8 13 -24 63
-36 55 -5 -3 -6 3 -2 12 5 13 3 15 -7 9 -8 -5 -11 -4 -7 3 10 15 -3 43 -16 35
-6 -3 -7 -1 -3 5 4 6 -26 67 -67 134 -40 68 -88 149 -106 181 -34 60 -40 64
-59 45 -13 -13 -15 -8 -6 16 3 9 11 13 16 9 6 -3 3 8 -8 25 -19 33 -41 24 -23
-10 6 -11 6 -18 1 -18 -6 0 -10 -18 -10 -40 0 -22 3 -40 8 -40 5 0 7 8 4 18
-5 15 -4 15 8 1 14 -16 38 -15 38 3 0 6 -7 8 -15 4 -19 -7 -20 8 -1 23 12 10
15 6 21 -19 4 -16 10 -28 15 -25 5 3 7 -11 6 -30 -2 -19 0 -35 5 -35 4 0 10
-8 13 -17 2 -10 8 -29 11 -42 5 -16 4 -21 -4 -17 -6 4 -11 16 -11 27 0 10 -4
19 -10 19 -5 0 -7 -7 -4 -15 4 -8 1 -15 -5 -15 -6 0 -11 9 -11 21 0 11 -4 17
-10 14 -5 -3 -10 -22 -10 -41 l0 -34 -65 0 -65 0 0 -40 c0 -22 5 -40 11 -40 5
0 7 -5 3 -12 -6 -9 -9 -9 -12 0 -2 7 -20 12 -41 12 -29 0 -46 8 -81 40 -38 35
-41 40 -22 40 25 0 28 10 10 28 -16 16 -26 15 -30 -4 -2 -13 -11 -9 -41 18
l-38 35 33 7 33 6 -25 13 c-27 14 -111 11 -121 -5 -3 -5 -20 5 -38 21 -18 17
-37 29 -41 26 -5 -3 -17 8 -26 25 -10 16 -26 30 -36 30 -15 0 -18 9 -18 60 0
46 -3 60 -15 60 -21 0 -67 49 -62 68 2 10 9 16 15 14 7 -1 12 2 12 8 0 14 -27
12 -33 -2 -4 -9 -8 -9 -14 -3 -15 19 -58 36 -80 32 -28 -4 -33 -9 -38 -36 -4
-22 22 -97 31 -88 3 3 1 14 -5 25 -16 30 -15 47 3 33 11 -9 15 -9 18 1 3 7 5
-9 5 -35 0 -29 -4 -43 -9 -35 -6 10 -8 10 -8 -2 0 -21 -24 15 -40 62 -8 20
-17 35 -21 32 -4 -2 -6 13 -4 33 2 23 1 31 -3 20 -7 -18 -8 -18 -23 0 -44 52
-90 133 -84 144 5 7 4 10 -3 5 -9 -5 -32 21 -32 36 0 2 183 3 408 2 224 0 416
3 427 7 27 10 40 -7 142 -181z m1 -205 c-3 -3 -9 2 -12 12 -6 14 -5 15 5 6 7
-7 10 -15 7 -18z m-678 -91 c0 -8 -19 -13 -24 -6 -3 5 1 9 9 9 8 0 15 -2 15
-3z m80 -77 c-1 -13 -26 16 -41 48 -7 13 -1 10 15 -8 14 -15 26 -33 26 -40z
m689 8 c0 -5 -6 1 -14 15 -8 14 -14 30 -14 35 0 6 6 -1 14 -15 8 -14 14 -29
14 -35z m-729 -7 c0 -10 -16 5 -40 37 -10 15 -7 14 13 -4 15 -14 27 -29 27
-33z m764 -47 c-8 -9 -34 10 -34 25 0 16 2 16 19 -2 10 -10 17 -21 15 -23z
m-733 -8 c-12 -20 -14 -14 -5 12 4 9 9 14 11 11 3 -2 0 -13 -6 -23z m684 -26
c6 -5 3 -7 -7 -3 -12 4 -18 0 -18 -11 0 -9 -3 -14 -6 -10 -3 3 -3 15 1 27 4
12 10 18 13 13 4 -4 12 -12 17 -16z m-17 -63 c-8 -17 -21 -23 -52 -26 -41 -3
-42 -2 -38 25 4 26 7 28 52 26 46 -2 48 -4 38 -25z m-321 -609 c25 -38 53 -81
62 -95 10 -14 41 -68 71 -120 29 -52 66 -113 82 -135 15 -22 50 -76 76 -120
27 -44 72 -117 100 -162 29 -46 52 -86 52 -89 0 -4 17 -32 37 -63 21 -31 43
-65 49 -76 18 -34 145 -248 172 -290 32 -49 36 -71 16 -79 -23 -9 -34 3 -95
100 -30 47 -66 105 -81 127 -50 79 -261 432 -356 597 -52 91 -105 181 -117
200 -27 42 -75 134 -128 245 -36 76 -37 78 -11 55 14 -14 47 -56 71 -95z
m3552 -376 c-202 -213 -210 -224 -207 -275 l3 -43 57 2 c31 1 54 -1 51 -5 -2
-5 -11 -8 -20 -8 -9 0 -32 -5 -50 -12 -24 -9 -33 -18 -33 -35 0 -13 -4 -23 -8
-23 -13 0 -45 -77 -38 -89 9 -13 -7 -44 -20 -39 -5 1 -10 -13 -12 -32 -1 -19
-6 -44 -11 -55 -10 -26 -51 -109 -73 -149 -9 -17 -12 -32 -7 -34 12 -5 12 -32
-1 -32 -9 0 -40 -91 -43 -129 0 -11 -6 -19 -12 -18 -5 1 -11 -20 -13 -48 -1
-27 -9 -64 -17 -82 -8 -17 -15 -43 -15 -57 0 -15 -7 -43 -15 -63 -9 -20 -14
-42 -12 -47 8 -21 -13 -58 -28 -52 -10 4 -15 -1 -15 -14 0 -11 5 -20 10 -20 6
0 10 -8 10 -17 0 -15 -2 -16 -10 -3 -8 12 -10 10 -11 -10 -1 -14 -3 -41 -5
-60 -7 -61 -13 -144 -13 -187 0 -33 -4 -43 -17 -43 -14 0 -15 -9 -9 -80 7 -84
-4 -107 -23 -47 -9 29 -10 27 -11 -33 0 -49 2 -61 10 -50 8 11 9 7 5 -19 -3
-18 -7 -50 -8 -70 -1 -32 -2 -30 -8 14 -6 46 -7 44 -10 -35 -2 -47 -3 -173 -3
-280 0 -167 -1 -178 -6 -75 l-6 120 -5 -200 c-3 -110 -7 275 -7 855 -1 742 2
1060 9 1075 23 43 151 185 161 178 6 -3 7 -1 3 6 -8 13 121 168 137 163 4 -1
6 1 4 5 -3 5 34 49 81 99 112 118 169 168 169 149 0 -8 -3 -13 -5 -10 -12 12
-30 -18 -26 -43 5 -25 4 -26 -9 -8 -13 18 -14 18 -11 -5 1 -13 3 -26 3 -28 1
-2 7 2 15 8 16 13 69 4 60 -10 -3 -6 -14 -7 -24 -4 -24 7 -34 -10 -20 -32 9
-16 10 -15 5 5 -4 13 -2 22 4 22 6 0 11 -3 11 -7 0 -5 11 -9 24 -9 19 -1 24 3
21 17 -2 10 1 19 7 19 5 0 7 -7 4 -16 -5 -14 -4 -15 9 -4 8 7 12 16 9 21 -3 5
-1 9 3 9 5 0 37 27 71 60 35 33 66 60 69 60 3 0 -55 -63 -128 -141z m-9 41
c-24 -15 -36 -11 -14 4 10 8 21 12 24 10 2 -3 -2 -9 -10 -14z m-2460 -420 c0
-5 -4 -10 -9 -10 -6 0 -13 5 -16 10 -3 6 1 10 9 10 9 0 16 -4 16 -10z m-343
-632 c-2 -18 -4 -6 -4 27 0 33 2 48 4 33 2 -15 2 -42 0 -60z m2953 -991 c0 -6
-53 -71 -117 -143 -131 -146 -664 -714 -670 -714 -14 0 8 42 42 78 25 28 39
52 38 65 -2 18 -1 19 5 5 6 -15 12 -12 37 20 42 53 156 181 260 292 50 53 142
153 205 224 151 169 200 211 200 173z m-753 -139 c-2 -13 -4 -3 -4 22 0 25 2
35 4 23 2 -13 2 -33 0 -45z m153 -441 c0 -2 -10 -12 -22 -23 l-23 -19 19 23
c18 21 26 27 26 19z m-76 -92 c-4 -8 -11 -15 -16 -15 -6 0 -5 6 2 15 7 8 14
15 16 15 2 0 1 -7 -2 -15z m-47 -49 c0 -8 -6 -12 -15 -9 -11 5 -11 7 0 14 7 5
13 9 14 9 0 0 1 -6 1 -14z m-26 -39 c-10 -9 -11 -8 -5 6 3 10 9 15 12 12 3 -3
0 -11 -7 -18z m-21 9 c0 -3 -4 -8 -10 -11 -5 -3 -10 -1 -10 4 0 6 5 11 10 11
6 0 10 -2 10 -4z m-1830 -311 c0 -2 -10 -10 -22 -16 -21 -11 -22 -11 -9 4 13
16 31 23 31 12z m-169 -233 c-10 -20 -51 -58 -51 -49 0 6 52 66 58 67 1 0 -2
-8 -7 -18z m-51 -66 c0 -1 -32 -33 -70 -71 -39 -39 -67 -61 -63 -50 14 35 37
61 68 78 17 9 26 16 21 17 -15 0 13 27 29 27 8 0 15 -1 15 -1z m-3387 -1852
l28 -26 -7 -100 c-4 -58 -3 -99 2 -97 46 21 84 44 84 51 0 4 -9 12 -19 17 -18
10 -46 69 -37 78 7 7 70 -28 83 -46 34 -44 5 -109 -66 -145 -28 -15 -38 -16
-62 -5 -17 6 -34 20 -39 30 -12 21 -14 269 -2 269 4 0 20 -12 35 -26z"/>
<path d="M2758 7223 c7 -3 16 -2 19 1 4 3 -2 6 -13 5 -11 0 -14 -3 -6 -6z"/>
<path d="M2805 7211 c-9 -15 4 -33 17 -25 6 4 8 1 6 -7 -3 -8 -11 -13 -17 -11
-18 4 -13 -14 11 -34 19 -15 20 -16 9 -1 -11 13 -11 20 -1 32 9 11 9 19 -3 35
-9 14 -17 17 -22 11z"/>
<path d="M2142 7140 c0 -14 2 -19 5 -12 2 6 2 18 0 25 -3 6 -5 1 -5 -13z"/>
<path d="M2800 7114 c0 -8 5 -12 10 -9 6 4 8 11 5 16 -9 14 -15 11 -15 -7z"/>
<path d="M2860 7118 c0 -9 5 -20 11 -23 17 -11 20 0 4 21 -13 17 -14 17 -15 2z"/>
<path d="M2886 7072 c-6 -10 2 -64 11 -72 3 -3 3 5 0 17 -3 13 -2 25 3 28 10
6 23 -42 15 -56 -8 -12 4 -49 16 -49 5 0 9 7 9 16 0 14 2 15 17 3 15 -13 15
-12 2 9 -13 21 -15 21 -26 5 -12 -15 -13 -15 -13 -1 0 9 4 19 9 22 5 4 3 19
-6 36 -8 17 -19 27 -25 23 -7 -4 -9 0 -5 10 7 18 2 23 -7 9z"/>
<path d="M2880 6815 c0 -8 5 -15 10 -15 6 0 10 7 10 15 0 8 -4 15 -10 15 -5 0
-10 -7 -10 -15z"/>
<path d="M2936 6743 c-11 -11 -6 -23 9 -23 8 0 15 4 15 9 0 13 -16 22 -24 14z"/>
<path d="M6197 6558 c2 -5 13 -8 24 -8 10 0 19 3 19 8 0 4 -11 7 -24 7 -13 0
-22 -3 -19 -7z"/>
<path d="M6360 6556 c0 -2 9 -6 20 -9 11 -3 20 -1 20 4 0 5 -9 9 -20 9 -11 0
-20 -2 -20 -4z"/>
<path d="M3939 5473 c-13 -16 -12 -17 4 -4 16 13 21 21 13 21 -2 0 -10 -8 -17
-17z"/>
<path d="M3941 2694 c0 -11 3 -14 6 -6 3 7 2 16 -1 19 -3 4 -6 -2 -5 -13z"/>
<path d="M3856 2611 c-4 -7 -5 -15 -2 -18 9 -9 19 4 14 18 -4 11 -6 11 -12 0z"/>
<path d="M6115 5629 c-4 -6 -5 -12 -2 -15 2 -3 7 2 10 11 7 17 1 20 -8 4z"/>
<path d="M6156 5508 c3 -5 10 -6 15 -3 13 9 11 12 -6 12 -8 0 -12 -4 -9 -9z"/>
<path d="M6051 5304 c0 -11 3 -14 6 -6 3 7 2 16 -1 19 -3 4 -6 -2 -5 -13z"/>
<path d="M5670 4024 c0 -14 4 -23 9 -20 5 3 7 15 4 26 -7 28 -13 25 -13 -6z"/>
<path d="M5653 3880 c0 -25 2 -35 4 -22 2 12 2 32 0 45 -2 12 -4 2 -4 -23z"/>
<path d="M5673 3880 c0 -25 2 -35 4 -22 2 12 2 32 0 45 -2 12 -4 2 -4 -23z"/>
<path d="M5633 3760 c0 -47 2 -66 4 -42 2 23 2 61 0 85 -2 23 -4 4 -4 -43z"/>
</g>
</svg>
